<svg width="42" height="42" viewBox="0 0 42 42" fill="none" xmlns="http://www.w3.org/2000/svg">
<g clip-path="url(#clip0_34_2078)">
<path d="M41.4693 -3H1.50744C0.589544 -3 -0.290757 -2.62669 -0.939808 -1.96218C-1.58886 -1.29768 -1.95349 -0.396417 -1.95349 0.543334V41.4567C-1.95349 42.3964 -1.58886 43.2977 -0.939808 43.9622C-0.290757 44.6267 0.589544 45 1.50744 45H41.4693C42.3872 45 43.2675 44.6267 43.9165 43.9622C44.5656 43.2977 44.9302 42.3964 44.9302 41.4567V0.543334C44.9302 -0.396417 44.5656 -1.29768 43.9165 -1.96218C43.2675 -2.62669 42.3872 -3 41.4693 -3ZM12.0205 37.89H4.97163V14.9667H12.0205V37.89ZM8.49116 11.79C7.69159 11.7854 6.91127 11.5384 6.24869 11.0802C5.5861 10.622 5.07094 9.97306 4.76822 9.21538C4.46551 8.45769 4.3888 7.62518 4.54778 6.82291C4.70676 6.02063 5.09431 5.28455 5.66151 4.70756C6.22871 4.13057 6.95015 3.73853 7.73477 3.58092C8.51939 3.42331 9.33203 3.50719 10.0701 3.82197C10.8082 4.13675 11.4387 4.66833 11.882 5.34962C12.3253 6.03092 12.5616 6.83138 12.5609 7.65C12.5685 8.19807 12.4682 8.74208 12.266 9.24961C12.0638 9.75714 11.7639 10.2178 11.3841 10.6041C11.0043 10.9905 10.5524 11.2946 10.0554 11.4983C9.55842 11.702 9.02642 11.8012 8.49116 11.79ZM38.0019 37.91H30.9563V25.3867C30.9563 21.6933 29.4228 20.5533 27.4433 20.5533C25.353 20.5533 23.3019 22.1667 23.3019 25.48V37.91H16.253V14.9833H23.0316V18.16H23.1228C23.8033 16.75 26.1865 14.34 29.8233 14.34C33.7563 14.34 38.0051 16.73 38.0051 23.73L38.0019 37.91Z" fill="#0A66C2"/>
</g>
<defs>
<clipPath id="clip0_34_2078">
<rect width="42" height="42" fill="white"/>
</clipPath>
</defs>
</svg>
